# AST/ASF file generated using VICON BodyLanguage
# -----------------------------------------------
:version 1.10
:name VICON
:units
  mass 1.0
  length 0.45
  angle deg
:documentation
   .ast/.asf automatically generated from VICON data using
   VICON BodyBuilder and BodyLanguage model FoxedUp or BRILLIANT.MOD
:root
   order TX TY TZ RX RY RZ
   axis XYZ
   position 0 0 0  
   orientation 0 0 0 
:bonedata
  begin
     id 1 
     name lhipjoint
     direction 0.611804 -0.747784 0.257906 
     length 2.29243 
     axis 0 0 0  XYZ
  end
  begin
     id 2 
     name lfemur
     direction 0.34202 -0.939693 0  
     length 7.31159  
     axis 0 0 20  XYZ
    dof rx ry rz
    limits (-160.0 20.0)
           (-70.0 70.0)
           (-60.0 70.0)
  end
  begin
     id 3 
     name ltibia
     direction 0.34202 -0.939693 0   
     length 7.33391   
     axis 0 0 20   XYZ
    dof rx
    limits (-10.0 170.0)
  end
  begin
     id 4 
     name lfoot
     direction 0.122263 -0.335914 0.933924   
     length 1.76083   
     axis -90 7.62852e-016 20   XYZ
    dof rx rz
    limits (-45.0 90.0)
           (-70.0 20.0)
  end
  begin
     id 5 
     name ltoes
     direction 1.53533e-011 -4.2177e-011 1   
     length 0.879206   
     axis -90 7.62852e-016 20   XYZ
    dof rx
    limits (-90.0 20.0)
  end
  begin
     id 6 
     name rhipjoint
     direction -0.646469 -0.721248 0.248754   
     length 2.37677  
     axis 0 0 0  XYZ 
  end
  begin
     id 7 
     name rfemur
     direction -0.34202 -0.939693 0   
     length 7.18623   
     axis 0 0 -20   XYZ
    dof rx ry rz
    limits (-160.0 20.0)
           (-70.0 70.0)
           (-70.0 60.0)
  end
  begin
     id 8 
     name rtibia
     direction -0.34202 -0.939693 0   
     length 7.36567   
     axis 0 0 -20   XYZ
    dof rx
    limits (-10.0 170.0)
 end
 begin
     id 9 
     name rfoot
     direction -0.126681 -0.348054 0.928876   
     length 1.71902  
     axis -90 -7.62852e-016 -20   XYZ
    dof rx rz
    limits (-45.0 90.0)
           (-20.0 70.0)
  end
  begin
     id 10 
     name rtoes
     direction -1.53551e-011 -4.21898e-011 1   
     length 0.857792   
     axis -90 -7.62852e-016 -20   XYZ
    dof rx
    limits (-90.0 20.0)
  end
  begin
     id 11 
     name lowerback
     direction 0.0106509 0.999778 0.0181844   
     length 2.07668   
     axis 0 0 0   XYZ
    dof rx ry rz
    limits (-20.0 45.0)
           (-30.0 30.0)
           (-30.0 30.0)
  end
  begin
     id 12 
     name upperback
     direction -0.00456018 0.999989 -0.000590935   
     length 2.08011   
     axis 0 0 0   XYZ
    dof rx ry rz
    limits (-20.0 45.0)
           (-30.0 30.0)
           (-30.0 30.0)
  end
  begin
     id 13 
     name thorax
     direction -0.00910382 0.999916 -0.00923765   
     length 2.07397   
     axis 0 0 0   XYZ
    dof rx ry rz
    limits (-20.0 45.0)
           (-30.0 30.0)
           (-30.0 30.0)
  end
  begin
     id 14 
     name lowerneck
     direction 0.00171967 0.99778 0.0665733   
     length 1.67556   
     axis 0 0 0   XYZ
    dof rx ry rz
    limits (-20.0 45.0)
           (-30.0 30.0)
           (-30.0 30.0)
  end
  begin
     id 15 
     name upperneck
     direction -0.0143166 0.991302 -0.130828   
     length 1.68462   
     axis 0 0 0   XYZ
    dof rx ry rz
    limits (-20.0 45.0)
           (-30.0 30.0)
           (-30.0 30.0)
  end
  begin
     id 16
     name head
     direction -0.00606378 0.998665 -0.0512995  
     length 1.69269  
     axis 0 0 0   XYZ
    dof rx ry rz
    limits (-20.0 45.0)
           (-30.0 30.0)
           (-30.0 30.0)
  end
  begin
     id 17 
     name lclavicle
     direction 0.9638 0.179341 0.197297  
     length 4.12888  
     axis 0 0 0   XYZ
    dof ry rz
    limits (-20.0 10.0)
           (0.0 20.0)
  end
  begin
     id 18 
     name lhumerus
     direction 1 -4.48972e-011 -2.47351e-027   
     length 5.01834   
     axis -180 -30 -90   XYZ
    dof rx ry rz
    limits (-60.0 90.0)
           (-90.0 90.0)
           (-90.0 90.0)
  end
  begin
     id 19
     name lradius
     direction 1 -4.48965e-011 1.51591e-026   
     length 3.4869   
     axis -180 -30 -90   XYZ
    dof rx
    limits (-10.0 170.0)
  end
  begin
     id 20
     name lwrist
     direction 1 -4.48957e-011 2.70032e-026   
     length 1.74345   
     axis -1.81515e-014 90 90   XYZ
    dof ry
    limits (-180.0 0.0)
 end
  begin
     id 21 
     name lhand
     direction 1 -4.48951e-011 5.40064e-026   
     length 0.76799   
     axis -3.44607e-014 90 90   XYZ
    dof rx rz
    limits (-90.0 90.0)
           (-45.0 45.0)
  end
  begin
     id 22 
     name lfingers
     direction 1 -4.48971e-011 1.08013e-025   
     length 0.619174   
     axis -6.89214e-014 90 90   XYZ
    dof rx
    limits (0.0 90.0)
  end
  begin
     id 23
     name lthumb
     direction 0.707107 -6.34931e-011 0.707107   
     length 0.889013   
     axis -90 45 2.85299e-015   XYZ
    dof rx rz
    limits (-45.0 45.0)
           (-45.0 45.0)
  end
  begin
     id 24 
     name rclavicle
     direction -0.961409 0.252588 0.109054   
     length 4.04305  
     axis 0 0 0   XYZ 
    dof ry rz
    limits (-10.0 20.0)
           (-20.0 0.0)
  end
  begin
     id 25 
     name rhumerus
     direction -1 -4.4897e-011 1.33872e-017  
     length 4.70164   
     axis -180 30 90   XYZ
    dof rx ry rz
    limits (-90.0 60.0)
           (-90.0 90.0)
           (-90.0 90.0)
  end
  begin
     id 26 
     name rradius
     direction -1 -4.48954e-011 1.83844e-026   
     length 3.49911   
     axis -180 30 90   XYZ
    dof rx
    limits (-10.0 170.0)
  end
  begin
     id 27 
     name rwrist
     direction -1 -4.49008e-011 2.70032e-026   
     length 1.74955   
     axis -1.81515e-014 -90 -90   XYZ
    dof ry
    limits (-180.0 0.0)
  end
  begin
     id 28
     name rhand
     direction -1 -4.48916e-011 5.40064e-026   
     length 0.739335   
     axis -3.44607e-014 -90 -90   XYZ
    dof rx rz
    limits (-90.0 90.0)
           (-45.0 45.0)
  end
  begin
     id 29
     name rfingers
     direction -1 -4.48987e-011 1.08013e-025   
     length 0.596071   
     axis -6.89214e-014 -90 -90   XYZ
    dof rx
    limits (0.0 90.0)
  end
  begin
     id 30
     name rthumb
     direction -0.707107 -6.34935e-011 0.707107   
     length 0.855843   
     axis -90 -45 -2.85299e-015   XYZ
    dof rx rz
    limits (-45.0 45.0)
           (-45.0 45.0)
  end
:hierarchy
  begin
    root lhipjoint rhipjoint lowerback
    lhipjoint lfemur
    lfemur ltibia
    ltibia lfoot
    lfoot ltoes
    rhipjoint rfemur
    rfemur rtibia
    rtibia rfoot
    rfoot rtoes
    lowerback upperback
    upperback thorax
    thorax lowerneck lclavicle rclavicle
    lowerneck upperneck
    upperneck head
    lclavicle lhumerus
    lhumerus lradius
    lradius lwrist
    lwrist lhand lthumb
    lhand lfingers
    rclavicle rhumerus
    rhumerus rradius
    rradius rwrist
    rwrist rhand rthumb
    rhand rfingers
  end

#!OML:ASF I:\salsa\salsa 7_09\Patient 1\Session 1\dancermale.ASF
:FULLY-SPECIFIED
:DEGREES
1529
root -3.28733 17.2965 -0.137352 477.605 -626.454 -257.813
lowerback -6.49219 -0.968722 2.915
upperback -7.55535 -0.83698 5.45832
thorax -4.18872 -0.232345 4.01711
lowerneck 9.0163 1.25424 -7.1128
upperneck 5.73981 1.24308 0.511925
head 0.24125 0.577018 1.32273
rclavicle 9.24349e-015 7.95139e-015
rhumerus -43.8631 23.4595 -107.744
rradius 122.724
rwrist -3.64182
rhand 4.87005 694.999
rfingers 7.12502
rthumb 30.246 -52.5435
lclavicle 9.24349e-015 7.95139e-015
lhumerus 64.0903 -25.0254 28.0806
lradius 76.4004
lwrist -1.30435
lhand -7.95013 23.8603
lfingers 7.12502
lthumb 17.9568 53.0513
rfemur -33.8947 3.60914 22.9594
rtibia 27.6454
rfoot -10.6505 -2.02991
rtoes 25.9481
lfemur -208.099 171.703 -198.87
ltibia 42.9316
lfoot -8.66273 24.8209
ltoes -26.0887
1530
root -3.25101 17.2763 -0.0851282 461.911 -626.29 -272.973
lowerback -6.15005 -0.659956 3.44803
upperback -7.4041 -0.454385 5.04679
thorax -4.2454 -0.0853388 3.29551
lowerneck 9.20421 0.880417 -6.49971
upperneck 5.54497 0.782325 0.444475
head 0.169324 0.361581 1.20598
rclavicle 1.56543e-014 -5.56597e-014
rhumerus -43.6486 20.9095 -110.617
rradius 120.713
rwrist -2.18507
rhand 2.68105 694.977
rfingers 7.12502
rthumb 28.1557 -52.9287
lclavicle 1.56543e-014 -5.56597e-014
lhumerus 64.2207 -27.0884 27.502
lradius 78.093
lwrist -2.22335
lhand -8.60223 23.6819
lfingers 7.12502
lthumb 17.3293 52.9293
rfemur -33.0333 3.02485 23.6384
rtibia 27.5834
rfoot -11.0943 -2.5364
rtoes 26.3478
lfemur -210.152 170.838 -198.573
ltibia 47.4332
lfoot -7.36782 23.3758
ltoes -20.3297
1531
root -3.21714 17.2544 -0.0389318 449.451 -625.961 -284.794
lowerback -5.60037 -0.252908 3.99984
upperback -7.35817 0.0813737 4.53892
thorax -4.5217 0.133332 2.46789
lowerneck 9.86668 0.347579 -5.34917
upperneck 5.23572 0.145221 0.0200381
head -0.0101941 0.0745064 0.891076
rclavicle -4.47266e-015 9.54166e-015
rhumerus -43.3465 18.2205 -112.985
rradius 118.537
rwrist -1.05102
rhand 0.0959966 695.222
rfingers 7.12502
rthumb 25.6823 -53.0652
lclavicle -4.47266e-015 9.54166e-015
lhumerus 64.188 -29.5644 27.2963
lradius 79.6973
lwrist -3.29924
lhand -9.12548 23.419
lfingers 7.12502
lthumb 16.8257 52.71
rfemur -32.2766 2.36312 24.1886
rtibia 27.8248
rfoot -11.8136 -2.687
rtoes 24.1397
lfemur -211.965 170.187 -198.359
ltibia 51.4392
lfoot -5.75579 21.8581
ltoes -12.7763
1532
root -3.18214 17.2317 0.00383119 437.433 -625.454 -296.111
lowerback -5.08567 0.077044 4.48902
upperback -7.29394 0.517029 4.08299
thorax -4.74252 0.304947 1.72339
lowerneck 10.5659 -0.192656 -4.31363
upperneck 4.90389 -0.501415 -0.274415
head -0.212021 -0.220512 0.646317
rclavicle -5.01931e-015 3.33958e-014
rhumerus -42.7709 15.6218 -114.738
rradius 116.075
rwrist 0.128479
rhand -2.04953 695.956
rfingers 7.12502
rthumb 23.6259 -52.612
lclavicle -5.01931e-015 3.33958e-014
lhumerus 63.8665 -32.133 27.4443
lradius 81.09
lwrist -3.77461
lhand -9.44599 22.8947
lfingers 7.12502
lthumb 16.5171 52.2117
rfemur -31.6228 1.46546 24.6647
rtibia 28.3377
rfoot -12.6759 -2.70213
rtoes 21.2731
lfemur -213.651 169.868 -198.169
ltibia 55.0708
lfoot -3.69713 20.5141
ltoes -6.08864
1533
root -3.14435 17.208 0.0476678 426.858 -624.743 -305.895
lowerback -4.58473 0.179721 4.76382
upperback -7.13714 0.653621 3.83831
thorax -4.85314 0.344271 1.31295
lowerneck 10.9383 -0.57281 -3.51582
upperneck 4.73718 -0.932078 -0.528583
head -0.319669 -0.4159 0.450409
rclavicle -1.44119e-014 7.87187e-014
rhumerus -41.9433 13.5484 -115.779
rradius 113.285
rwrist 1.53128
rhand -3.55182 697.07
rfingers 7.12502
rthumb 22.1843 -51.6769
lclavicle -1.44119e-014 7.87187e-014
lhumerus 62.8833 -34.4552 27.8937
lradius 82.19
lwrist -4.14633
lhand -10.0171 22.3549
lfingers 7.12502
lthumb 15.9672 51.7168
rfemur -30.8721 0.402236 25.1175
rtibia 28.8602
rfoot -13.3246 -2.66505
rtoes 20.3995
lfemur -215.058 170.006 -197.812
ltibia 58.3013
lfoot -1.93547 19.1953
ltoes -1.76139
1534
root -3.11144 17.1823 0.0913701 418.371 -623.843 -313.564
lowerback -4.04103 0.0830974 4.75128
upperback -6.91344 0.541425 3.90291
thorax -4.9241 0.285215 1.38337
lowerneck 11.0331 -0.816932 -3.02412
upperneck 4.60286 -1.20348 -0.908829
head -0.377205 -0.537076 0.261411
rclavicle 4.03533e-014 -1.00983e-013
rhumerus -40.8059 12.153 -116.13
rradius 110.278
rwrist 1.72967
rhand -5.35421 697.495
rfingers 7.12502
rthumb 20.4531 -51.4476
lclavicle 4.03533e-014 -1.00983e-013
lhumerus 61.4258 -36.4377 28.5598
lradius 83.0446
lwrist -5.26524
lhand -10.9654 21.9753
lfingers 7.12502
lthumb 15.0538 51.408
rfemur -30.0328 -0.749612 25.58
rtibia 29.2339
rfoot -13.8572 -2.6556
rtoes 21.0051
lfemur -216.29 170.487 -197.282
ltibia 61.1662
lfoot -0.561858 17.7467
ltoes -0.447212
1535
root -3.0938 17.1611 0.103096 413.545 -623.197 -317.896
lowerback -3.79737 0.0585371 4.72416
upperback -6.65559 0.508177 4.0569
thorax -4.79013 0.273952 1.55595
lowerneck 10.7347 -0.969872 -3.1193
upperneck 4.52372 -1.41265 -1.03848
head -0.35073 -0.643603 0.242564
rclavicle -7.90169e-015 8.11041e-014
rhumerus -39.3206 11.211 -116.002
rradius 107.041
rwrist 0.706804
rhand -7.90542 697.443
rfingers 7.12502
rthumb 17.9998 -51.744
lclavicle -7.90169e-015 8.11041e-014
lhumerus 59.8591 -38.052 29.403
lradius 83.6251
lwrist -6.78441
lhand -11.9941 21.5076
lfingers 7.12502
lthumb 14.0627 51.0119
rfemur -29.6269 -2.08302 25.8693
rtibia 29.6738
rfoot -14.3086 -2.1851
rtoes 20.9755
lfemur -217.585 171.264 -196.941
ltibia 63.6418
lfoot 0.165918 16.2931
ltoes 0.235773
1536
root -3.0678 17.1371 0.104102 412.031 -622.525 -318.727
lowerback -3.55723 0.131964 5.09126
upperback -6.30208 0.593247 4.17337
thorax -4.55268 0.303199 1.46872
lowerneck 10.5443 -1.16662 -3.01427
upperneck 4.36162 -1.66543 -1.14413
head -0.369357 -0.768682 0.200514
rclavicle 1.17283e-014 -3.10104e-014
rhumerus -37.5502 10.1154 -115.745
rradius 103.49
rwrist -0.419881
rhand -10.566 697.779
rfingers 7.12502
rthumb 15.4385 -51.624
lclavicle 1.17283e-014 -3.10104e-014
lhumerus 58.4173 -39.5143 30.082
lradius 83.8983
lwrist -8.19923
lhand -12.8337 20.5597
lfingers 7.12502
lthumb 13.2535 50.1183
rfemur -28.9333 -3.24436 26.3888
rtibia 29.9792
rfoot -14.6582 -1.59202
rtoes 19.7612
lfemur -218.354 172.203 -196.131
ltibia 65.6854
lfoot 0.180121 14.5393
ltoes 0.772869
1537
root -3.0318 17.1057 0.108182 411.545 -621.639 -318.539
lowerback -3.41367 0.113536 5.68749
upperback -6.01571 0.561013 4.33368
thorax -4.33528 0.26954 1.30149
lowerneck 10.5279 -1.28969 -2.95981
upperneck 4.15208 -1.83323 -1.12704
head -0.431692 -0.851901 0.203676
rclavicle 1.35671e-014 -4.85035e-014
rhumerus -35.7829 9.07104 -115.552
rradius 99.7696
rwrist -1.02952
rhand -12.7499 698.648
rfingers 7.12502
rthumb 13.3343 -50.9058
lclavicle 1.35671e-014 -4.85035e-014
lhumerus 56.8141 -40.8733 30.6135
lradius 84.0343
lwrist -9.34278
lhand -14.0963 19.5492
lfingers 7.12502
lthumb 12.0363 49.1831
rfemur -28.1717 -4.18542 27.1389
rtibia 30.1552
rfoot -15.0284 -1.25048
rtoes 17.9202
lfemur -218.967 173.474 -194.851
ltibia 67.4234
lfoot -0.0577415 13.1093
ltoes 1.65995
1538
root -2.99938 17.0722 0.108592 411.2 -620.859 -318.382
lowerback -3.35955 0.0721018 6.16463
upperback -5.79021 0.498785 4.50706
thorax -4.13344 0.229262 1.21525
lowerneck 10.4422 -1.35589 -2.97428
upperneck 3.91632 -1.93396 -1.0235
head -0.490324 -0.904887 0.242376
rclavicle -9.59136e-015 -7.95139e-015
rhumerus -33.8798 8.22345 -115.247
rradius 96.0829
rwrist -1.4948
rhand -14.1841 699.268
rfingers 7.12502
rthumb 11.9516 -50.3711
lclavicle -9.59136e-015 -7.95139e-015
lhumerus 55.2913 -42.0254 31.0541
lradius 83.9766
lwrist -10.3033
lhand -15.6625 18.6183
lfingers 7.12502
lthumb 10.5257 48.3348
rfemur -27.6332 -4.80065 27.7615
rtibia 30.3297
rfoot -15.3748 -1.10995
rtoes 16.237
lfemur -219.607 175.043 -193.518
ltibia 68.874
lfoot -0.557591 12.0505
ltoes 2.49919
1539
root -2.97941 17.0365 0.104826 412.993 -620.653 -316.432
lowerback -3.51075 0.367885 6.49534
upperback -5.62534 0.858377 4.44579
thorax -3.86378 0.399781 0.967678
lowerneck 10.3205 -1.55463 -2.65936
upperneck 3.64301 -2.17763 -0.795703
head -0.555466 -1.0289 0.269708
rclavicle 1.87355e-014 -4.37326e-014
rhumerus -31.4186 7.15943 -114.956
rradius 92.3621
rwrist -2.21829
rhand -15.7474 699.844
rfingers 7.12502
rthumb 10.4438 -49.8766
lclavicle 1.87355e-014 -4.37326e-014
lhumerus 54.5558 -43.0436 30.9798
lradius 83.6894
lwrist -11.2722
lhand -16.9872 17.5137
lfingers 7.12502
lthumb 9.24771 47.2909
rfemur -27.7426 -4.76256 28.1607
rtibia 30.861
rfoot -15.7315 -0.876058
rtoes 15.5356
lfemur -220.397 176.413 -192.263
ltibia 70.0317
lfoot -0.754061 11.4965
ltoes 4.33937
